# Blender 3.4.1
# www.blender.org
mtllib Barrier.mtl
o Cube
v 1.000000 0.538856 -1.000000
v 1.000000 -0.538856 -1.000000
v 1.000000 0.538856 1.000000
v 1.000000 -0.538856 1.000000
v -1.000000 0.538856 -1.000000
v -1.000000 -0.538856 -1.000000
v -1.000000 0.538856 1.000000
v -1.000000 -0.538856 1.000000
v -1.037125 -0.538856 -1.037125
v -1.037125 -0.538856 1.037125
v 1.037125 -0.538856 -1.037125
v 1.030313 0.555190 -1.030313
v -1.030313 0.555190 1.030313
v 1.030313 0.555190 1.030313
v 1.037125 -0.538856 1.037125
v -1.030313 0.555190 -1.030313
vn -0.0000 -1.0000 -0.0000
vn -0.0000 -0.0000 -1.0000
vn 1.0000 -0.0000 -0.0000
vn -1.0000 -0.0000 -0.0000
vn -0.0000 -0.0000 1.0000
vn -0.0000 1.0000 -0.0000
vn -0.0000 0.0062 1.0000
vn -1.0000 0.0062 -0.0000
vn 1.0000 0.0062 -0.0000
vn -0.0000 0.0062 -1.0000
vt 0.625000 0.500000
vt 0.375000 0.500000
vt 0.625000 0.750000
vt 0.375000 0.750000
vt 0.875000 0.500000
vt 0.625000 0.250000
vt 0.375000 0.250000
vt 0.875000 0.750000
vt 0.625000 1.000000
vt 0.625000 0.000000
vt 0.375000 0.000000
vt 0.375000 1.000000
vt 0.375000 0.250000
vt 0.375000 0.000000
vt 0.375000 1.000000
vt 0.375000 0.500000
vt 0.625000 0.500000
vt 0.875000 0.750000
vt 0.625000 1.000000
vt 0.625000 0.000000
vt 0.625000 0.750000
vt 0.375000 0.750000
vt 0.875000 0.500000
vt 0.625000 0.250000
s 0
usemtl Material
f 1/1/1 3/3/1 7/8/1 5/5/1
f 4/4/2 8/12/2 7/9/2 3/3/2
f 8/11/3 6/7/3 5/6/3 7/10/3
f 2/2/4 4/4/4 3/3/4 1/1/4
f 6/7/5 2/2/5 1/1/5 5/6/5
f 12/17/6 16/23/6 13/18/6 14/21/6
f 15/22/7 14/21/7 13/19/7 10/15/7
f 10/14/8 13/20/8 16/24/8 9/13/8
f 11/16/9 12/17/9 14/21/9 15/22/9
f 9/13/10 16/24/10 12/17/10 11/16/10
f 6/7/1 8/11/1 10/14/1 9/13/1
f 4/4/1 2/2/1 11/16/1 15/22/1
f 2/2/1 6/7/1 9/13/1 11/16/1
f 8/12/1 4/4/1 15/22/1 10/15/1
